<svg width="60" height="60" viewBox="0 0 60 60" fill="none" xmlns="http://www.w3.org/2000/svg">
<path d="M55.7814 19.3897C55.6059 19.1893 55.3897 19.0285 55.1472 18.9182C54.9047 18.8079 54.6415 18.7505 54.3751 18.7498H43.9759L31.4064 4.38969C31.2304 4.19017 31.014 4.03039 30.7716 3.92094C30.5291 3.81149 30.2661 3.75488 30.0001 3.75488C29.7341 3.75488 29.4711 3.81149 29.2287 3.92094C28.9862 4.03039 28.7698 4.19017 28.5939 4.38969L16.0243 18.7498H5.62513C5.3579 18.7498 5.09376 18.8069 4.85041 18.9173C4.60706 19.0277 4.39011 19.1888 4.21411 19.3899C4.03811 19.591 3.90713 19.8274 3.82994 20.0832C3.75274 20.339 3.73113 20.6084 3.76653 20.8733L7.29856 47.3717C7.42177 48.271 7.86581 49.0955 8.54888 49.6933C9.23195 50.2911 10.108 50.6219 11.0158 50.6248H48.9845C49.8922 50.6219 50.7683 50.2911 51.4514 49.6933C52.1344 49.0955 52.5785 48.271 52.7017 47.3717L56.2337 20.8733C56.2685 20.608 56.2462 20.3384 56.1681 20.0825C56.0901 19.8266 55.9582 19.5904 55.7814 19.3897ZM19.1251 43.1248C19.0619 43.1283 18.9985 43.1283 18.9353 43.1248C18.4688 43.1272 18.0183 42.9556 17.6716 42.6435C17.3249 42.3315 17.1069 41.9015 17.0603 41.4373L15.7478 28.3123C15.6981 27.8176 15.8469 27.3233 16.1616 26.9382C16.4763 26.5532 16.9311 26.3089 17.4259 26.2592C17.9207 26.2095 18.415 26.3584 18.8 26.6731C19.1851 26.9878 19.4293 27.4425 19.479 27.9373L20.7915 41.0623C20.844 41.5568 20.698 42.0519 20.3855 42.4387C20.073 42.8255 19.6196 43.0723 19.1251 43.1248ZM31.8751 41.2498C31.8751 41.7471 31.6776 42.224 31.326 42.5757C30.9743 42.9273 30.4974 43.1248 30.0001 43.1248C29.5028 43.1248 29.0259 42.9273 28.6743 42.5757C28.3227 42.224 28.1251 41.7471 28.1251 41.2498V28.1248C28.1251 27.6276 28.3227 27.1506 28.6743 26.799C29.0259 26.4474 29.5028 26.2498 30.0001 26.2498C30.4974 26.2498 30.9743 26.4474 31.326 26.799C31.6776 27.1506 31.8751 27.6276 31.8751 28.1248V41.2498ZM21.0072 18.7498L30.0001 8.4725L38.9931 18.7498H21.0072ZM44.2407 28.3123L42.9282 41.4373C42.8818 41.8994 42.6655 42.3278 42.3213 42.6396C41.9771 42.9514 41.5294 43.1243 41.065 43.1248C41.0017 43.1283 40.9384 43.1283 40.8751 43.1248C40.6301 43.1002 40.3924 43.0276 40.1754 42.9111C39.9585 42.7946 39.7667 42.6365 39.6108 42.4458C39.455 42.2552 39.3383 42.0357 39.2673 41.7999C39.1962 41.5642 39.1724 41.3167 39.197 41.0717L40.5095 27.9467C40.5592 27.4519 40.8035 26.9971 41.1885 26.6824C41.5735 26.3677 42.0678 26.2189 42.5626 26.2686C43.0574 26.3183 43.5122 26.5626 43.8269 26.9476C44.1416 27.3326 44.2905 27.8269 44.2407 28.3217V28.3123Z" fill="#FF0000"/>
</svg>
