<svg width="40" height="40" viewBox="0 0 40 40" fill="none" xmlns="http://www.w3.org/2000/svg">
<path d="M37.4999 14.0673C37.5026 15.2577 37.2692 16.4368 36.8132 17.5364C36.3573 18.636 35.6879 19.6343 34.8437 20.4735L20.8905 34.6329C20.7742 34.751 20.6356 34.8448 20.4827 34.9088C20.3298 34.9728 20.1657 35.0058 19.9999 35.0058C19.8341 35.0058 19.67 34.9728 19.5171 34.9088C19.3642 34.8448 19.2256 34.751 19.1093 34.6329L5.15615 20.4735C3.45504 18.7745 2.49854 16.4693 2.49707 14.065C2.49561 11.6607 3.4493 9.35434 5.14834 7.65322C6.84738 5.95211 9.1526 4.99561 11.5569 4.99414C13.9612 4.99268 16.2675 5.94637 17.9687 7.64541L19.9999 9.54385L22.0452 7.63916C23.3147 6.37602 24.9299 5.51729 26.687 5.1714C28.4441 4.8255 30.2643 5.00794 31.9178 5.69568C33.5712 6.38342 34.9839 7.54564 35.9774 9.0356C36.9709 10.5256 37.5007 12.2765 37.4999 14.0673Z" fill="#F8CA11"/>
</svg>
