<svg width="60" height="60" viewBox="0 0 60 60" fill="none" xmlns="http://www.w3.org/2000/svg">
<path d="M38.5472 45.8506C38.7317 46.1335 38.8364 46.461 38.8501 46.7985C38.8639 47.1359 38.7862 47.4709 38.6254 47.7678C38.4645 48.0648 38.2264 48.3128 37.9363 48.4857C37.6461 48.6585 37.3147 48.7498 36.9769 48.7498H2.39723C2.05949 48.7498 1.72803 48.6585 1.43786 48.4857C1.1477 48.3128 0.90962 48.0648 0.748766 47.7678C0.587911 47.4709 0.510261 47.1359 0.524017 46.7985C0.537774 46.461 0.642427 46.1335 0.82692 45.8506C3.46623 41.788 7.34839 38.6877 11.8941 37.0123C9.38113 35.3394 7.47326 32.9021 6.45262 30.0609C5.43198 27.2197 5.35275 24.1255 6.22666 21.2359C7.10058 18.3462 8.88122 15.8145 11.3053 14.0151C13.7294 12.2157 16.6681 11.2441 19.6871 11.2441C22.706 11.2441 25.6448 12.2157 28.0689 14.0151C30.4929 15.8145 32.2736 18.3462 33.1475 21.2359C34.0214 24.1255 33.9422 27.2197 32.9215 30.0609C31.9009 32.9021 29.993 35.3394 27.48 37.0123C32.0258 38.6877 35.9079 41.788 38.5472 45.8506ZM59.1511 45.8155C56.5111 41.77 52.6376 38.683 48.105 37.0123C51.0717 35.014 53.1654 31.9602 53.9599 28.4725C54.7543 24.9849 54.1899 21.3256 52.3815 18.2394C50.573 15.1533 47.6565 12.8723 44.2256 11.8607C40.7946 10.8491 37.1071 11.183 33.9136 12.7944C33.7915 12.8574 33.6848 12.9466 33.6009 13.0554C33.5171 13.1643 33.4582 13.2903 33.4285 13.4245C33.3987 13.5587 33.3988 13.6977 33.4288 13.8319C33.4588 13.966 33.5179 14.0919 33.6019 14.2006C35.9765 17.1627 37.3403 20.8073 37.4934 24.6006C37.6465 28.3939 36.5809 32.1365 34.4527 35.2803C34.3151 35.4858 34.2643 35.7372 34.3113 35.98C34.3583 36.2227 34.4992 36.4371 34.7035 36.5764C37.4782 38.513 39.8536 40.9664 41.6996 43.8022C42.4441 44.9423 42.7481 46.3144 42.555 47.6623C42.5333 47.7964 42.541 47.9336 42.5775 48.0645C42.614 48.1953 42.6786 48.3166 42.7666 48.4201C42.8547 48.5235 42.9641 48.6065 43.0875 48.6635C43.2108 48.7204 43.345 48.7499 43.4808 48.7498H57.6136C58.0265 48.75 58.4279 48.6138 58.7555 48.3625C59.083 48.1112 59.3185 47.7588 59.4254 47.36C59.4905 47.0977 59.4998 46.8247 59.4526 46.5586C59.4053 46.2925 59.3026 46.0393 59.1511 45.8155Z" fill="#21409C"/>
</svg>
