<svg width="60" height="60" viewBox="0 0 60 60" fill="none" xmlns="http://www.w3.org/2000/svg">
<path d="M57.1374 23.934L51.6541 12.9092C51.4521 12.5034 51.1726 12.1416 50.8314 11.8444C50.4902 11.5472 50.0942 11.3205 49.6658 11.1771C49.2374 11.0338 48.7851 10.9766 48.3348 11.0089C47.8844 11.0412 47.4448 11.1624 47.041 11.3654L41.6975 14.0493L30.4409 11.0566C30.1521 10.9811 29.8488 10.9811 29.56 11.0566L18.3034 14.0493L12.9598 11.3654C12.556 11.1624 12.1164 11.0412 11.6661 11.0089C11.2157 10.9766 10.7634 11.0338 10.3351 11.1771C9.9067 11.3205 9.51062 11.5472 9.16946 11.8444C8.8283 12.1416 8.54874 12.5034 8.34674 12.9092L2.86349 23.9319C2.66143 24.3376 2.54088 24.7794 2.50873 25.232C2.47658 25.6845 2.53345 26.139 2.67611 26.5695C2.81877 27 3.04441 27.398 3.34016 27.7409C3.6359 28.0837 3.99595 28.3646 4.39975 28.5676L10.201 31.4847L22.1236 40.0415C22.2993 40.1671 22.4968 40.2587 22.7059 40.3114L36.457 43.7661C36.745 43.8387 37.0467 43.8351 37.3329 43.7556C37.6191 43.6762 37.8799 43.5236 38.0899 43.3127L46.6844 34.676L49.9245 31.4199L55.6011 28.5676C56.416 28.1577 57.0357 27.4393 57.3237 26.5704C57.6118 25.7015 57.5448 24.7533 57.1374 23.934ZM45.3436 31.1392L37.9503 25.1885C37.6191 24.922 37.2014 24.7879 36.7778 24.8123C36.3541 24.8366 35.9544 25.0175 35.6556 25.3202C31.8289 29.1938 27.5639 28.7037 24.8438 26.9763L34.1344 17.9077H40.9691L46.8154 29.6559L45.3436 31.1392ZM36.3474 40.1776L23.8597 37.0403L13.2885 29.4529L19.3047 17.3615L30.0004 14.5135L32.1061 15.0727L22.4373 24.5041L22.4201 24.5235C22.0562 24.8892 21.7786 25.3324 21.6079 25.8204C21.4371 26.3084 21.3776 26.8287 21.4337 27.3428C21.4898 27.857 21.6601 28.3519 21.9319 28.7912C22.2038 29.2304 22.5704 29.6026 23.0046 29.8804C27.4221 32.7154 32.7528 32.2555 36.9512 28.8008L42.8921 33.5964L36.3474 40.1776ZM30.8212 47.6915C30.7283 48.0649 30.5141 48.3964 30.2124 48.6334C29.9107 48.8704 29.539 48.9995 29.156 49C29.0148 48.9998 28.8741 48.9824 28.737 48.9482L19.7752 46.6962C19.5658 46.6442 19.3682 46.5526 19.1929 46.4263L13.5313 42.3627C13.1832 42.088 12.954 41.689 12.8913 41.2487C12.8286 40.8084 12.9373 40.3608 13.1948 39.999C13.4524 39.6373 13.8388 39.3893 14.2737 39.3067C14.7086 39.2242 15.1584 39.3133 15.5295 39.5557L20.9247 43.4293L29.5707 45.5971C30.0129 45.7083 30.393 45.9914 30.6275 46.3841C30.862 46.7769 30.9317 47.2472 30.8212 47.6915Z" fill="#F8CA11"/>
</svg>
