<svg width="40" height="40" viewBox="0 0 40 40" fill="none" xmlns="http://www.w3.org/2000/svg">
<path d="M33.0001 12.4047C32.8519 12.4754 32.7191 12.5747 32.6093 12.6968C32.4995 12.8189 32.4149 12.9614 32.3602 13.1162C32.3055 13.2711 32.2818 13.4351 32.2905 13.5991C32.2993 13.7631 32.3402 13.9237 32.411 14.0719C33.8783 17.1329 34.1626 20.6282 33.2094 23.8862C32.2562 27.1441 30.1327 29.9349 27.247 31.7224C24.3612 33.5099 20.9166 34.1679 17.5751 33.5701C14.2337 32.9723 11.231 31.1608 9.14391 28.4837C7.05687 25.8065 6.03273 22.4526 6.26825 19.0662C6.50377 15.6798 7.98234 12.5 10.4199 10.1375C12.8574 7.77503 16.082 6.39664 19.4741 6.26714C22.8661 6.13764 26.1864 7.26618 28.797 9.43593L25.2392 12.9937C23.4674 11.6737 21.2618 11.0727 19.0653 11.3116C16.8688 11.5505 14.844 12.6115 13.3974 14.2816C11.9508 15.9517 11.1896 18.1072 11.2666 20.3153C11.3437 22.5234 12.2532 24.6207 13.8126 26.1859C15.0664 27.4393 16.6714 28.2822 18.415 28.6031C20.1586 28.924 21.9586 28.7076 23.5765 27.9827C25.1943 27.2578 26.5539 26.0585 27.475 24.5437C28.3961 23.0289 28.8353 21.27 28.7345 19.5C28.7252 19.3358 28.6838 19.1751 28.6124 19.027C28.5411 18.8789 28.4412 18.7462 28.3186 18.6367C28.196 18.5272 28.0531 18.4428 27.8979 18.3885C27.7427 18.3343 27.5783 18.3111 27.4142 18.3203C27.25 18.3295 27.0893 18.371 26.9412 18.4424C26.793 18.5137 26.6604 18.6135 26.5509 18.7361C26.4413 18.8587 26.357 19.0017 26.3027 19.1569C26.2484 19.3121 26.2252 19.4765 26.2345 19.6406C26.3014 20.7986 26.0447 21.9524 25.4932 22.9728C24.9417 23.9933 24.1171 24.8401 23.1116 25.4186C22.1062 25.997 20.9597 26.2842 19.8003 26.2481C18.6409 26.212 17.5144 25.854 16.547 25.2141L20.2892 21.4719L26.1876 15.5812L35.8845 5.89374C36.0006 5.7776 36.0927 5.63973 36.1556 5.48798C36.2184 5.33624 36.2508 5.17361 36.2508 5.00936C36.2508 4.84512 36.2184 4.68249 36.1556 4.53074C36.0927 4.379 36.0006 4.24113 35.8845 4.12499C35.7683 4.00885 35.6305 3.91673 35.4787 3.85387C35.327 3.79102 35.1643 3.75867 35.0001 3.75867C34.8359 3.75867 34.6732 3.79102 34.5215 3.85387C34.3697 3.91673 34.2319 4.00885 34.1157 4.12499L30.5735 7.65624C27.3844 4.90906 23.2538 3.50651 19.0513 3.7439C14.8488 3.9813 10.9024 5.8401 8.04297 8.92895C5.18355 12.0178 3.63424 16.0957 3.72125 20.304C3.80826 24.5123 5.52481 28.5226 8.50947 31.4906C11.2194 34.2054 14.8023 35.874 18.6242 36.2012C22.446 36.5284 26.2604 35.4931 29.3924 33.2784C32.5243 31.0637 34.7718 27.8125 35.7372 24.1001C36.7026 20.3878 36.3236 16.4536 34.6673 12.9937C34.5965 12.8456 34.4973 12.7128 34.3752 12.603C34.2531 12.4932 34.1106 12.4085 33.9557 12.3538C33.8009 12.2991 33.6368 12.2754 33.4729 12.2842C33.3089 12.2929 33.1482 12.3338 33.0001 12.4047Z" fill="#21409C"/>
</svg>
