<svg width="250" height="46" viewBox="0 0 250 46" fill="none" xmlns="http://www.w3.org/2000/svg">
<g clip-path="url(#clip0_3399_1424)">
<path d="M17.9062 3.66083C15.516 4.87425 13.504 6.55238 11.8628 8.69153C10.2216 10.8307 8.99899 13.3165 8.19492 16.1491C8.19492 16.1491 6.92823 16.1491 6.89886 16.1491C7.84245 12.6674 8.80072 9.11936 9.20827 5.52706C9.34778 4.30627 9.32576 3.07072 9.32576 1.84256H0V44.1646H9.32576V30.6363C9.32576 29.1868 9.3588 27.7632 9.39552 26.3395C9.56808 23.9717 10.1041 21.685 11.044 19.4906C12.1932 16.8019 14.0217 14.6037 16.5257 12.8998C19.0297 11.1958 22.2092 10.3402 26.0644 10.3402V1.83887C23.0133 1.83887 20.2927 2.44742 17.9062 3.66083Z" fill="black"/>
<path d="M37.5633 30.7617C38.3674 32.6427 39.6488 34.2323 41.4038 35.5305C43.1588 36.8325 45.3874 37.4816 48.0934 37.4816C50.7993 37.4816 53.2005 36.803 54.9555 35.4457C56.7105 34.0885 58.0213 32.2517 58.8841 29.9392H67.9492C67.0276 33.9299 64.9972 37.4705 61.8617 40.5649C58.7262 43.6593 54.1624 45.2047 48.1778 45.2047C43.4599 45.2047 39.5276 44.1203 36.3921 41.9517C33.2566 39.783 30.9655 37.0095 29.53 33.6237C28.0907 30.2417 27.3711 26.701 27.3711 22.9981C27.3711 19.2951 28.0907 15.7581 29.53 12.3724C30.9692 8.99031 33.2566 6.21678 36.3921 4.04813C39.5313 1.88316 43.4635 0.798828 48.1815 0.798828C52.8994 0.798828 56.8427 1.89791 60.0112 4.09607C63.1761 6.29424 65.4929 9.2411 66.9615 12.944C68.4301 16.6433 69.0469 20.6929 68.8193 25.0856H36.0984C36.2709 26.9924 36.7593 28.8881 37.567 30.7654L37.5633 30.7617ZM42.0537 10.1226C40.3831 11.1922 39.087 12.5494 38.1691 14.198C37.2476 15.8467 36.6418 17.5654 36.3554 19.3578L59.8387 19.4426C59.6661 17.7092 59.119 16.0016 58.1975 14.3271C57.2759 12.6527 55.9652 11.2622 54.2689 10.1632C52.5727 9.06407 50.5129 8.51453 48.097 8.51453C45.6812 8.51453 43.7205 9.04932 42.0537 10.1189V10.1226Z" fill="black"/>
<path d="M75.8541 15.7689C74.76 14.6994 74.2129 13.4417 74.2129 11.9959C74.2129 10.5501 74.76 9.20763 75.8541 8.13806C76.9482 7.06848 78.2993 6.53369 79.9111 6.53369C80.8327 6.53369 81.7102 6.7808 82.5437 7.27133C83.3771 7.76186 84.038 8.42942 84.53 9.26664C85.0183 10.1039 85.2643 11.0148 85.2643 11.9996C85.2643 13.4454 84.7319 14.703 83.6671 15.7726C82.6024 16.8422 81.3504 17.377 79.9111 17.377C78.2993 17.377 76.9482 16.8422 75.8541 15.7726V15.7689ZM75.8541 38.2669C74.76 37.1973 74.2129 35.9397 74.2129 34.4939C74.2129 33.0481 74.76 31.7056 75.8541 30.636C76.9482 29.5665 78.2993 29.0317 79.9111 29.0317C80.8327 29.0317 81.7102 29.2788 82.5437 29.7693C83.3771 30.2598 84.038 30.9274 84.53 31.7646C85.0183 32.6055 85.2643 33.5128 85.2643 34.4976C85.2643 35.9433 84.7319 37.201 83.6671 38.2706C82.6024 39.3402 81.3504 39.875 79.9111 39.875C78.2993 39.875 76.9482 39.3402 75.8541 38.2706V38.2669Z" fill="black"/>
<path d="M131.453 19.8776V44.1607H122.127V20.571C122.127 17.2184 121.393 14.4449 119.924 12.2467C118.456 10.0486 116.139 8.77614 112.974 8.42945C110.441 8.14177 108.267 8.48846 106.457 9.46952C104.643 10.4543 103.233 11.8705 102.227 13.7183C101.221 15.5698 100.572 17.7089 100.285 20.1358C100.054 23.5474 99.94 27.0475 99.94 30.6287V44.157H90.6143V1.83865H99.94V4.00731C99.94 5.33875 99.7381 6.82509 99.3379 8.47371C98.934 10.1223 98.4751 11.6677 97.9574 13.1135H99.2534C100.116 9.93424 101.555 7.33406 103.571 5.30924C105.587 3.28442 107.929 1.94192 110.61 1.27436C113.286 0.610484 115.948 0.595731 118.595 1.2301C121.474 1.92348 123.89 3.26598 125.847 5.26498C127.803 7.2603 129.228 9.54329 130.12 12.114C131.012 14.6883 131.457 17.2737 131.457 19.8776H131.453Z" fill="black"/>
<path d="M136.791 26.1219V1.83887H146.117V25.4286C146.117 28.7811 146.851 31.5583 148.32 33.7528C149.788 35.951 152.105 37.2234 155.27 37.5701C157.858 37.8615 160.047 37.5111 161.831 36.53C163.615 35.549 165.011 34.1327 166.02 32.2812C167.026 30.4297 167.672 28.2906 167.963 25.8638C168.19 22.3932 168.308 18.8968 168.308 15.3708V1.83887H177.633V44.1609H168.308V41.9922C168.308 40.6608 168.51 39.1744 168.913 37.5258C169.317 35.8772 169.776 34.3318 170.294 32.8861H168.998C168.19 36.0653 166.784 38.6692 164.768 40.6903C162.753 42.7151 160.41 44.0576 157.73 44.7252C155.053 45.3891 152.362 45.4038 149.656 44.7694C146.778 44.0761 144.376 42.7299 142.445 40.7346C140.518 38.7392 139.093 36.4562 138.172 33.8856C137.25 31.3149 136.791 28.7258 136.791 26.1219Z" fill="black"/>
<path d="M193.113 30.7615C193.917 32.6425 195.199 34.2321 196.954 35.5303C198.709 36.8323 200.937 37.4814 203.643 37.4814C206.349 37.4814 208.75 36.8028 210.505 35.4455C212.26 34.0882 213.571 32.2515 214.434 29.939H223.499C222.577 33.9297 220.547 37.4703 217.412 40.5647C214.276 43.6591 209.712 45.2045 203.728 45.2045C199.01 45.2045 195.077 44.1201 191.942 41.9515C188.806 39.7828 186.515 37.0093 185.08 33.6235C183.641 30.2415 182.921 26.7008 182.921 22.9978C182.921 19.2949 183.641 15.7579 185.08 12.3722C186.519 8.99009 188.806 6.21657 191.942 4.04791C195.077 1.87925 199.006 0.794922 203.728 0.794922C208.449 0.794922 212.389 1.894 215.557 4.09217C218.722 6.29033 221.039 9.2372 222.508 12.9401C223.976 16.6394 224.593 20.689 224.365 25.0817H191.645C191.817 26.9885 192.305 28.8842 193.113 30.7615ZM197.603 10.1224C195.933 11.1919 194.637 12.5492 193.719 14.1978C192.797 15.8464 192.192 17.5651 191.905 19.3576L215.388 19.4424C215.216 17.709 214.669 16.0013 213.747 14.3269C212.826 12.6525 211.515 11.262 209.819 10.1629C208.122 9.06385 206.063 8.51431 203.647 8.51431C201.231 8.51431 199.27 9.0491 197.603 10.1187V10.1224Z" fill="black"/>
<path d="M249.666 17.0785C249.174 18.6755 248.384 19.5053 247.162 20.3278C246.339 20.881 245.061 21.2904 243.519 21.8068C242.429 22.1719 240.968 22.9833 240.288 23.8242C240.149 23.9976 240.042 24.0603 239.914 24.0603C239.785 24.0603 239.675 23.9976 239.539 23.8242C238.86 22.987 237.399 22.1719 236.308 21.8068C234.766 21.2904 233.489 20.8847 232.666 20.3278C231.444 19.5053 230.654 18.6755 230.162 17.0785C229.703 15.5885 229.659 13.512 230.419 10.366C230.493 10.0636 230.841 8.73212 230.885 7.09825C230.937 5.12507 230.485 3.61291 230.327 2.95641C230.192 2.38843 230.841 1.84258 231.348 2.07125C232.395 2.54702 233.459 2.96379 234.733 2.95641C236.525 2.94535 238.041 2.56178 239.741 0.872583C239.756 0.85783 239.84 0.765625 239.918 0.765625C239.995 0.765625 240.083 0.85783 240.094 0.872583C241.794 2.56178 243.31 2.94535 245.102 2.95641C246.376 2.96748 247.441 2.55071 248.487 2.07125C248.994 1.84258 249.643 2.38843 249.508 2.95641C249.35 3.61291 248.898 5.12507 248.95 7.09825C248.99 8.73212 249.342 10.0636 249.416 10.366C250.176 13.512 250.132 15.5885 249.673 17.0785H249.666Z" fill="#EF3F43"/>
<path d="M249.063 10.4323C248.993 10.1372 248.615 8.84638 248.579 7.26046C248.52 4.88895 248.993 3.68291 249.151 3.04485C249.254 2.62809 248.902 2.29615 248.516 2.46949C247.506 2.93052 246.141 3.33253 244.914 3.32884C243.185 3.31778 241.654 2.94896 240.02 1.3114C240.009 1.30034 239.972 1.25977 239.914 1.25977C239.855 1.25977 239.822 1.30034 239.807 1.3114C238.173 2.94527 236.642 3.31778 234.913 3.32884C233.687 3.33622 232.317 2.93052 231.311 2.46949C230.926 2.29615 230.573 2.62809 230.676 3.04485C230.834 3.68291 231.304 4.88895 231.249 7.26046C231.212 8.84269 230.834 10.1372 230.764 10.4323C230.033 13.4751 230.078 15.4888 230.522 16.9309C230.995 18.4763 231.722 19.2803 232.901 20.0769C233.694 20.6117 234.957 20.9658 236.444 21.46C237.498 21.8104 239.003 22.5849 239.653 23.4C239.712 23.4701 239.811 23.6508 239.921 23.6508C240.031 23.6508 240.13 23.4701 240.189 23.4C240.839 22.5886 242.344 21.8141 243.398 21.46C244.885 20.9621 246.148 20.6117 246.941 20.0769C248.12 19.2803 248.85 18.4763 249.32 16.9309C249.764 15.4888 249.809 13.4751 249.078 10.4323H249.063ZM249.015 16.6395C248.656 17.9673 247.91 18.9557 246.79 19.7155C246.034 20.2245 244.698 20.6043 243.28 21.0875C241.863 21.5706 240.666 22.2898 240.182 22.8468C240.123 22.9095 239.991 23.057 239.914 23.1344C239.837 23.057 239.701 22.9131 239.646 22.8468C239.161 22.2935 237.964 21.5706 236.547 21.0875C235.13 20.608 233.793 20.2245 233.037 19.7155C231.917 18.9557 231.172 17.9636 230.812 16.6395C230.441 15.2491 230.434 13.3829 231.131 10.4802C231.197 10.2036 231.576 8.95334 231.612 7.44855C231.667 5.19138 231.285 3.56489 231.032 2.99322C230.951 2.80512 231.098 2.7498 231.289 2.84569C231.968 3.17763 233.613 3.71979 235.144 3.68291C236.896 3.63865 238.412 3.21082 239.921 1.70973C241.43 3.21451 242.946 3.63865 244.698 3.68291C246.225 3.71979 247.87 3.17763 248.553 2.84569C248.744 2.75348 248.891 2.80881 248.81 2.99322C248.556 3.56489 248.175 5.19138 248.23 7.44855C248.266 8.95334 248.645 10.2036 248.711 10.4802C249.408 13.3792 249.401 15.2491 249.03 16.6395H249.015Z" fill="white"/>
<path d="M234.704 8.27502C234.726 7.98734 234.704 7.58902 234.711 7.08004C234.711 6.93989 234.722 6.81818 234.656 6.82187C234.546 6.83293 234.447 7.08373 234.406 7.2202C234.34 7.4378 234.296 7.82506 234.241 7.99472C234.197 8.13118 234.028 8.35616 233.977 8.30452C233.933 8.26395 234.142 7.56689 234.091 6.98046C234.08 6.86244 234.091 6.77761 234.091 6.77761C234.091 6.77761 235.581 5.92933 235.798 5.80762C235.816 6.01416 235.857 6.47887 235.893 6.72229C235.934 6.98046 236.125 7.29027 236.04 7.27921C235.677 7.22388 235.647 6.45674 235.379 6.4383C235.214 6.42723 235.251 6.54894 235.24 6.67803C235.229 6.80712 235.225 7.6259 235.225 7.76236C235.225 7.89882 235.225 9.33353 235.221 9.51794C235.218 9.70235 235.222 9.84988 235.445 9.96052C235.122 10.1449 234.707 10.3773 234.41 10.5506C234.52 10.381 234.693 10.0232 234.696 9.79824C234.696 9.36672 234.682 8.5922 234.707 8.27502" fill="white"/>
<path d="M236.467 8.07941C236.456 7.45979 236.492 6.37546 236.437 6.27957C236.378 6.18737 236.32 6.11729 236.158 6.04353C236.445 5.88125 236.881 5.63414 237.201 5.45342C237.091 5.62307 237.021 5.82592 237.01 5.99558C236.995 6.28326 236.995 6.54512 236.992 6.77748C236.992 7.03196 237.036 6.9582 237.333 6.8033C237.623 6.65208 237.697 6.61151 237.7 6.48242C237.704 6.26851 237.7 5.80011 237.7 5.7079C237.7 5.62307 237.649 5.29851 237.454 5.30589C237.642 5.19893 238.236 4.86699 238.435 4.75635C238.218 5.16574 238.255 5.50505 238.251 5.82961C238.244 6.54881 238.233 7.25325 238.233 7.99089C238.233 8.04622 238.266 8.2085 238.468 8.25644C238.2 8.40766 237.818 8.62526 237.557 8.77279C237.733 8.45929 237.693 7.27907 237.689 7.1758C237.686 7.07253 237.722 6.94345 237.52 7.06147C237.384 7.14261 237.197 7.24957 237.061 7.32702C236.988 7.37128 236.966 7.41922 236.97 7.52249C236.977 7.76223 236.981 8.26382 236.977 8.52199C236.973 8.77648 236.918 8.87975 237.23 8.96089C236.959 9.1121 236.511 9.36659 236.213 9.53625C236.481 9.21169 236.47 8.53675 236.463 8.08679" fill="white"/>
<path d="M240.296 5.52349C239.892 5.56406 239.642 5.82223 239.624 5.90706C239.598 6.03614 239.605 6.66683 239.609 6.8623C239.609 7.02827 239.657 7.10941 239.727 7.10941C240.141 7.13154 240.714 6.38652 240.942 5.81854C240.946 6.09884 240.935 6.66314 240.931 6.87336C240.597 7.06146 239.121 7.89131 238.86 8.03883C239.011 7.80279 239.099 7.44503 239.095 7.26063C239.095 7.07622 239.121 6.24268 239.11 5.73371C239.11 5.56406 239.11 5.25056 239.11 5.11041C239.11 4.97026 239.11 4.60513 238.856 4.5203C239.396 4.21049 239.943 3.90437 240.509 3.5835C240.542 3.84167 240.586 4.2068 240.615 4.44653C240.479 4.33958 240.241 4.17361 240.05 4.19205C239.851 4.21049 239.741 4.29901 239.649 4.47604C239.598 4.57193 239.627 5.32064 239.627 5.44235C239.627 5.44235 239.749 5.37596 239.804 5.31695C240.086 5.02927 240.578 5.0182 240.711 5.00345C240.935 4.97763 241.048 4.81904 241.122 4.67151C241.166 4.9555 241.181 5.01083 240.993 5.24687C240.868 5.40178 240.545 5.49398 240.299 5.5198" fill="white"/>
<path d="M232.248 13.2836C231.991 13.4459 231.892 13.8774 232.108 14.1061C232.241 14.2462 232.674 14.6445 233.052 15.0097C233.43 15.3748 233.606 15.7694 233.57 16.3854C233.533 17.0013 232.894 17.5472 232.45 17.5545C231.543 17.5693 231.337 17.0345 231.326 16.7247C231.319 16.4149 231.517 16.0424 231.87 16.0129C232.237 15.9834 232.34 16.3153 232.321 16.4444C232.097 16.3927 231.895 16.4591 231.888 16.6767C231.873 16.9681 232.16 17.0677 232.384 17.0419C232.968 16.9829 233.254 16.2969 232.872 15.751C232.578 15.3306 231.392 14.7589 231.455 13.8626C231.503 13.1988 231.998 12.8226 232.332 12.7746C233.008 12.6787 233.118 12.9959 233.243 12.9C233.302 12.8558 233.404 12.8004 233.515 12.7968C233.625 12.7931 233.658 12.7968 233.687 12.8484C233.364 13.2098 233.379 13.8737 233.61 14.32C233.5 14.4638 233.269 14.2573 233.144 14.0434C233.019 14.0286 232.986 14.0065 232.912 13.9733C233.026 13.7778 233.041 13.634 232.938 13.4422C232.824 13.2393 232.468 13.1435 232.248 13.2799" fill="white"/>
<path d="M233.86 16.2525C233.786 16.614 233.728 16.673 233.669 16.7799C233.922 16.6287 234.286 16.4296 234.561 16.2747C234.506 16.2747 234.359 16.2083 234.33 16.0681C234.293 15.8911 234.407 15.1645 234.473 15.1202C234.539 15.076 234.994 14.8178 235.049 14.7809C235.105 14.7477 235.152 14.9985 235.196 15.2235C235.244 15.4485 235.218 15.6956 235.02 16.0202C235.292 15.8616 235.835 15.5628 235.975 15.4743C235.74 15.4522 235.677 14.8879 235.63 14.7219C235.586 14.5596 235.024 12.4168 235.005 12.2361C234.987 12.0554 234.998 11.8673 235.053 11.7529C234.943 11.8119 234.833 11.8746 234.741 12.0664C234.616 12.3357 234.568 12.6934 234.532 12.8815C234.491 13.0696 233.897 16.0792 233.86 16.2525ZM234.763 13.3093C234.763 13.3093 235.064 14.3752 235.009 14.4011C234.925 14.4379 234.602 14.6223 234.55 14.6482C234.499 14.674 234.759 13.3093 234.759 13.3093" fill="white"/>
<path d="M236.745 11.6901C236.749 12.3982 236.723 14.2276 236.727 14.3751C236.731 14.5226 236.708 14.6628 236.749 14.6738C236.87 14.707 237.017 14.5042 237.138 14.3751C237.259 14.246 237.197 13.4826 237.681 13.3719C237.608 13.5858 237.564 13.8883 237.553 13.9878C237.542 14.0874 237.571 14.5669 237.571 14.5669C237.571 14.5669 236.44 15.2086 236.117 15.393C236.227 15.1349 236.198 14.8509 236.202 14.6148C236.224 13.6854 236.213 12.8334 236.235 11.845C236.242 11.5463 236.029 11.4836 235.952 11.443C236.202 11.3028 236.815 10.9525 236.896 10.9082C236.793 11.0815 236.742 11.2401 236.745 11.6864" fill="white"/>
<path d="M237.414 11.1551C237.374 10.9928 237.249 10.8674 237.08 10.8158C237.363 10.6498 237.792 10.4138 238.079 10.2478C237.998 10.4101 237.899 10.8379 237.958 11.0482C238.002 11.2068 238.306 12.5898 238.306 12.5898C238.306 12.5898 238.641 10.6019 238.663 10.4507C238.685 10.3032 238.714 10.1888 238.45 10.0413C238.666 9.91589 239.188 9.62453 239.43 9.48438C239.375 9.59871 239.235 9.84951 239.184 10.0819C239.132 10.3142 238.439 13.7664 238.428 13.8438C238.417 13.9213 238.387 14.3048 238.093 14.4487C238.163 14.1979 238.156 14.1794 238.119 13.9877C238.082 13.7959 237.532 11.6493 237.414 11.1588" fill="white"/>
<path d="M239.044 13.3018C238.97 13.6633 238.809 13.796 238.75 13.903C239.003 13.7518 239.569 13.4383 239.84 13.2834C239.785 13.2834 239.558 13.2354 239.528 13.0916C239.492 12.9146 239.605 12.2175 239.672 12.1732C239.738 12.129 240.153 11.8819 240.208 11.8487C240.263 11.8155 240.31 12.0663 240.354 12.2913C240.399 12.5162 240.376 12.7633 240.178 13.0916C240.45 12.933 240.993 12.6343 241.133 12.5457C240.898 12.5199 240.835 11.9593 240.788 11.7934C240.744 11.6311 240.248 9.47717 240.23 9.29276C240.211 9.11204 240.211 8.86124 240.23 8.73584C240.119 8.79485 239.998 8.94607 239.954 9.15629C239.888 9.46979 239.807 9.84599 239.771 10.0341C239.73 10.2222 239.077 13.1285 239.044 13.3018ZM239.984 10.5947C239.984 10.5947 240.222 11.4467 240.167 11.4725C240.083 11.5094 239.829 11.668 239.778 11.6901C239.727 11.7159 239.984 10.5947 239.984 10.5947Z" fill="white"/>
<path d="M241.427 9.38116C241.423 9.15618 241.427 8.77629 241.39 8.73941C241.346 8.75048 241.082 8.85006 241.019 9.12298C240.95 9.44386 241.001 9.70203 240.682 9.96389C240.748 9.55081 240.722 9.10454 240.682 8.77998C240.924 8.63614 242.275 7.88006 242.488 7.75098C242.462 8.212 242.47 8.81318 242.51 9.25945C242.437 9.23363 242.242 9.01234 242.227 8.92751C242.213 8.85375 242.216 8.48124 242.011 8.43329C241.915 8.41116 241.919 8.55869 241.919 8.62877C241.919 8.69884 241.904 9.60245 241.908 9.68359C241.912 9.76473 241.893 11.5646 241.893 11.642C241.893 11.7232 241.956 11.926 242.15 11.985C241.945 12.0994 241.445 12.376 241.225 12.4977C241.431 12.1879 241.39 11.8301 241.401 11.6088C241.416 11.299 241.431 10.1151 241.42 9.38485" fill="white"/>
<path d="M243.354 7.70683C243.343 8.22686 243.328 10.6426 243.328 10.7975C243.328 10.9967 243.453 11.1516 243.585 11.17C243.35 11.3065 242.855 11.5905 242.598 11.7306C242.704 11.5204 242.829 11.1405 242.829 10.8123C242.822 10.0009 242.869 8.7469 242.855 7.97238C242.855 7.91706 242.77 7.65888 242.66 7.65888C242.899 7.52242 243.266 7.31588 243.501 7.18311C243.431 7.3085 243.365 7.41915 243.361 7.70314" fill="white"/>
<path d="M243.993 10.4914C244.379 10.9819 244.999 10.6205 245.275 10.0931C245.532 9.60624 245.601 8.75795 245.62 7.89123C245.638 7.0245 245.234 6.63724 244.948 6.53029C244.661 6.42333 244.272 6.6815 244.111 6.91017C243.946 7.13884 243.725 7.54085 243.655 8.10883C243.556 8.89811 243.6 9.98981 243.993 10.4914ZM245.054 7.5261C245.047 7.82853 245.095 9.31856 244.838 9.9935C244.647 10.5025 244.294 10.2775 244.225 9.88285C244.133 9.34438 244.192 7.95762 244.36 7.37488C244.533 6.77739 245.065 6.85853 245.054 7.5261Z" fill="white"/>
<path d="M245.877 6.62986C245.869 6.29423 245.763 6.26104 245.535 6.04344C245.605 5.99549 246.093 5.72256 246.251 5.63405C246.369 5.8664 246.739 6.83271 246.912 7.06138C247.018 6.44545 247.059 5.85903 247.077 5.2431C247.081 5.09188 246.861 4.91485 246.747 4.86321C246.809 4.66774 247.375 4.33949 247.485 4.9923C247.536 5.30948 247.158 7.66255 247.378 8.63255C247.444 8.93498 247.547 9.10464 247.646 9.27798C247.591 9.3333 247.441 9.33699 247.268 9.27798C247.096 9.21897 246.982 8.9903 246.927 8.82433C246.725 8.23053 246.468 7.72894 246.236 7.22735C246.214 7.64411 246.218 7.82483 246.211 8.04981C246.196 8.53665 246.207 8.79483 246.225 9.24479C246.233 9.39969 246.435 9.50296 246.556 9.50665C246.336 9.62467 245.913 9.86809 245.678 10.0046C245.792 9.79433 245.851 9.56935 245.866 9.1784C245.888 8.38913 245.895 7.42651 245.884 6.63723" fill="white"/>
<path d="M237.961 18.5021C238.013 18.4763 238.45 18.2218 238.534 18.1849C238.589 18.1591 238.24 16.8387 238.24 16.8387C238.24 16.8387 237.91 18.5279 237.961 18.5021ZM237.998 16.4072C238.038 16.2007 238.068 15.8724 238.204 15.5811C238.299 15.3708 238.453 15.2639 238.574 15.2012C238.516 15.3266 238.53 15.4114 238.549 15.6106C238.567 15.8097 239.107 18.2144 239.155 18.3915C239.202 18.5685 239.301 19.2139 239.555 19.2397C239.401 19.3393 239.019 19.5348 238.725 19.7081C238.813 19.3283 238.765 19.1955 238.718 18.9484C238.666 18.705 238.63 18.5501 238.571 18.5869C238.512 18.6238 237.936 18.9484 237.862 18.9963C237.792 19.0443 237.668 19.7045 237.704 19.8999C237.734 20.0548 237.895 20.1507 237.958 20.147C237.66 20.3167 237.341 20.479 237.065 20.6449C237.128 20.5269 237.194 20.4495 237.275 20.0548C237.311 19.8667 237.954 16.6138 237.998 16.4072Z" fill="white"/>
<path d="M240.299 16.7358C240.299 16.828 240.644 16.8095 240.821 16.6288C240.956 16.485 241.118 15.7769 241.048 15.5371C240.879 14.9618 240.314 15.1277 240.303 15.2605C240.292 15.3933 240.292 16.2858 240.303 16.7358M240.945 17.0087C240.916 17.1857 241.059 17.7906 241.236 18.1225C241.467 18.5098 241.761 18.7422 242.275 18.5762C242.135 19.1552 241.493 19.0188 241.225 18.8307C240.611 18.3992 240.351 17.407 240.325 17.0714C240.292 17.1894 240.285 17.9935 240.292 18.4434C240.292 18.4987 240.343 18.6758 240.534 18.6868C240.424 18.7459 239.778 19.111 239.635 19.1995C239.668 19.1516 239.727 19.0077 239.73 18.7569C239.738 17.975 239.738 16.4776 239.756 15.5371C239.756 15.4154 239.536 15.2162 239.466 15.1867C239.752 14.9655 240.163 14.7995 240.501 14.6962C240.839 14.5929 241.213 14.7147 241.419 15.0208C241.83 15.633 241.485 16.4813 240.949 17.0013" fill="white"/>
<path d="M244.067 13.7076C244.052 14.1982 244.056 15.4079 244.067 16.0754C244.067 16.3594 244.107 16.3963 244.346 16.5402C244.012 16.7135 243.619 16.9348 243.27 17.1487C243.413 16.909 243.498 16.5955 243.498 16.4885C243.487 15.998 243.512 15.1128 243.472 14.6629C243.31 15.0575 243.009 16.0275 243.009 16.0275C243.009 16.0275 242.598 15.312 242.367 14.9801C242.326 15.6734 242.334 16.9717 242.341 17.1303C242.348 17.2889 242.466 17.3848 242.661 17.4917C242.389 17.6466 241.948 17.8937 241.699 18.0265C241.743 17.8974 241.919 17.6614 241.919 17.477C241.919 17.145 241.941 14.792 241.941 14.578C241.941 14.3604 241.948 14.1502 241.658 14.0174C241.768 13.9584 242.165 13.7224 242.26 13.6744C242.558 14.1834 242.811 14.6592 242.951 14.862C243.145 14.2203 243.303 13.7113 243.538 12.9589C243.678 12.8667 244.026 12.6676 244.25 12.5532C244.012 13.088 244.092 13.0364 244.074 13.7113" fill="white"/>
<path d="M244.764 12.6344C244.702 12.5127 244.592 12.4131 244.481 12.4131C244.72 12.284 245.139 12.0443 245.414 11.8894C245.359 11.9447 245.289 12.2287 245.308 12.3135C245.326 12.3983 245.719 13.3905 245.766 13.4605C245.891 13.2835 246.229 12.5754 246.438 12.0148C246.574 11.6459 246.394 11.1038 246.119 11.1112C246.225 10.8272 246.67 10.8788 246.784 11.0485C247.011 11.3841 246.923 11.8488 246.802 12.177C246.681 12.5053 246.247 13.4421 246.009 13.94C245.998 13.9621 245.976 15.0723 245.979 15.1719C245.983 15.2714 246.115 15.4448 246.244 15.4669C245.954 15.6292 245.458 15.9095 245.153 16.0792C245.337 15.762 245.403 15.596 245.399 15.2161C245.396 14.9432 245.41 14.1613 245.396 14.1318C245.271 13.8626 244.823 12.7635 244.76 12.6418" fill="white"/>
</g>
<defs>
<clipPath id="clip0_3399_1424">
<rect width="250" height="44.4685" fill="white" transform="translate(0 0.765625)"/>
</clipPath>
</defs>
</svg>
