<svg width="200" height="36" viewBox="0 0 200 36" fill="none" xmlns="http://www.w3.org/2000/svg">
<g clip-path="url(#clip0_248_5271)">
<path d="M14.3249 2.34365C12.4128 3.32598 10.8032 4.68453 9.49024 6.4163C8.17729 8.14808 7.19919 10.1605 6.55593 12.4536C6.55593 12.4536 5.54258 12.4536 5.51908 12.4536C6.27396 9.63501 7.04058 6.76266 7.36661 3.85447C7.47823 2.86616 7.4606 1.86592 7.4606 0.871638H0V35.1339H7.4606V24.1819C7.4606 23.0085 7.48704 21.856 7.51641 20.7034C7.65446 18.7865 8.0833 16.9353 8.83523 15.1588C9.75459 12.9821 11.2173 11.2026 13.2205 9.82312C15.2237 8.44367 17.7674 7.75096 20.8515 7.75096V0.868652C18.4107 0.868652 16.2342 1.36131 14.3249 2.34365Z" fill="white"/>
<path d="M30.0513 24.2836C30.6945 25.8064 31.7196 27.0933 33.1236 28.1443C34.5276 29.1983 36.3105 29.7238 38.4753 29.7238C40.64 29.7238 42.561 29.1744 43.965 28.0756C45.369 26.9768 46.4176 25.4899 47.1078 23.6178H54.3599C53.6227 26.8485 51.9984 29.7148 49.49 32.2199C46.9815 34.725 43.3305 35.9761 38.5428 35.9761C34.7685 35.9761 31.6227 35.0983 29.1143 33.3426C26.6059 31.5869 24.773 29.3416 23.6246 26.6006C22.4732 23.8626 21.8975 20.9963 21.8975 17.9985C21.8975 15.0007 22.4732 12.1373 23.6246 9.39635C24.776 6.65836 26.6059 4.41302 29.1143 2.65736C31.6256 0.904686 34.7714 0.0268555 38.5458 0.0268555C42.3201 0.0268555 45.4747 0.916629 48.0096 2.69618C50.5415 4.47572 52.3949 6.86139 53.5698 9.85915C54.7447 12.8539 55.2381 16.1324 55.056 19.6885H28.8793C29.0173 21.2321 29.408 22.7668 30.0542 24.2866L30.0513 24.2836ZM33.6435 7.575C32.3071 8.44089 31.2702 9.53967 30.5359 10.8743C29.7987 12.209 29.314 13.6004 29.0849 15.0515L47.8715 15.1202C47.7335 13.7168 47.2958 12.3344 46.5586 10.9788C45.8213 9.62327 44.7727 8.49762 43.4157 7.60785C42.0587 6.71807 40.4109 6.27319 38.4782 6.27319C36.5455 6.27319 34.977 6.70613 33.6435 7.57202V7.575Z" fill="white"/>
<path d="M60.6831 12.1459C59.8078 11.28 59.3701 10.2619 59.3701 9.09143C59.3701 7.92099 59.8078 6.83415 60.6831 5.96826C61.5584 5.10238 62.6393 4.66943 63.9287 4.66943C64.666 4.66943 65.368 4.86948 66.0347 5.2666C66.7015 5.66371 67.2302 6.20414 67.6238 6.88192C68.0144 7.5597 68.2112 8.2972 68.2112 9.09441C68.2112 10.2649 67.7853 11.283 66.9335 12.1489C66.0817 13.0148 65.0801 13.4477 63.9287 13.4477C62.6393 13.4477 61.5584 13.0148 60.6831 12.1489V12.1459ZM60.6831 30.3594C59.8078 29.4935 59.3701 28.4754 59.3701 27.3049C59.3701 26.1345 59.8078 25.0476 60.6831 24.1817C61.5584 23.3159 62.6393 22.8829 63.9287 22.8829C64.666 22.8829 65.368 23.083 66.0347 23.4801C66.7015 23.8772 67.2302 24.4176 67.6238 25.0954C68.0144 25.7762 68.2112 26.5107 68.2112 27.3079C68.2112 28.4783 67.7853 29.4965 66.9335 30.3624C66.0817 31.2283 65.0801 31.6612 63.9287 31.6612C62.6393 31.6612 61.5584 31.2283 60.6831 30.3624V30.3594Z" fill="white"/>
<path d="M105.162 15.4722V35.1308H97.7016V16.0336C97.7016 13.3194 97.1141 11.0741 95.9392 9.29456C94.7643 7.51502 92.9109 6.48491 90.379 6.20424C88.3523 5.97135 86.6135 6.25202 85.1654 7.04624C83.7144 7.84346 82.5865 8.99001 81.7817 10.4859C80.9769 11.9848 80.457 13.7166 80.2279 15.6812C80.0429 18.4431 79.9518 21.2766 79.9518 24.1759V35.1279H72.4912V0.868588H79.9518V2.62425C79.9518 3.70213 79.7903 4.90541 79.4701 6.24007C79.147 7.57473 78.7798 8.82579 78.3657 9.99623H79.4025C80.0928 7.42246 81.2442 5.31746 82.8567 3.67824C84.4693 2.03903 86.3433 0.952191 88.4875 0.411758C90.6287 -0.125689 92.7582 -0.137632 94.876 0.375928C97.1788 0.937262 99.1115 2.0241 100.677 3.64241C102.243 5.25774 103.382 7.10596 104.096 9.18707C104.81 11.2712 105.165 13.3642 105.165 15.4722H105.162Z" fill="white"/>
<path d="M109.433 20.5273V0.868652H116.893V19.9659C116.893 22.68 117.481 24.9284 118.656 26.7049C119.83 28.4845 121.684 29.5146 124.216 29.7952C126.287 30.0311 128.037 29.7475 129.465 28.9532C130.892 28.159 132.008 27.0125 132.816 25.5136C133.621 24.0147 134.138 22.2829 134.37 20.3183C134.552 17.5086 134.646 14.6781 134.646 11.8236V0.868652H142.107V35.1309H134.646V33.3752C134.646 32.2974 134.807 31.0941 135.131 29.7594C135.454 28.4248 135.821 27.1737 136.235 26.0033H135.198C134.552 28.577 133.427 30.685 131.814 32.3212C130.202 33.9605 128.328 35.0473 126.184 35.5877C124.042 36.1252 121.889 36.1371 119.725 35.6236C117.422 35.0622 115.501 33.9724 113.956 32.3571C112.414 30.7418 111.274 28.8935 110.537 26.8124C109.8 24.7313 109.433 22.6353 109.433 20.5273Z" fill="white"/>
<path d="M154.491 24.2837C155.134 25.8065 156.159 27.0933 157.563 28.1444C158.967 29.1983 160.75 29.7239 162.915 29.7239C165.079 29.7239 167 29.1745 168.404 28.0757C169.808 26.9769 170.857 25.49 171.547 23.6179H178.799C178.062 26.8485 176.438 29.7149 173.929 32.22C171.421 34.7251 167.77 35.9762 162.982 35.9762C159.208 35.9762 156.062 35.0983 153.554 33.3427C151.045 31.587 149.212 29.3417 148.064 26.6007C146.913 23.8627 146.337 20.9963 146.337 17.9985C146.337 15.0008 146.913 12.1374 148.064 9.39641C149.215 6.65841 151.045 4.41308 153.554 2.65742C156.062 0.901756 159.205 0.0239258 162.982 0.0239258C166.76 0.0239258 169.911 0.9137 172.446 2.69325C174.978 4.47279 176.831 6.85846 178.006 9.85622C179.181 12.851 179.675 16.1294 179.493 19.6855H153.316C153.454 21.2292 153.845 22.7639 154.491 24.2837ZM158.083 7.57506C156.747 8.44095 155.71 9.53973 154.975 10.8744C154.238 12.209 153.753 13.6004 153.524 15.0515L172.311 15.1202C172.173 13.7169 171.735 12.3345 170.998 10.9789C170.261 9.62333 169.212 8.49768 167.855 7.6079C166.498 6.71813 164.85 6.27324 162.918 6.27324C160.985 6.27324 159.416 6.70619 158.083 7.57207V7.57506Z" fill="white"/>
<path d="M199.733 13.2063C199.339 14.4991 198.708 15.1709 197.729 15.8368C197.071 16.2846 196.049 16.6161 194.816 17.0341C193.943 17.3297 192.774 17.9866 192.231 18.6673C192.119 18.8077 192.034 18.8584 191.931 18.8584C191.828 18.8584 191.74 18.8077 191.632 18.6673C191.088 17.9895 189.919 17.3297 189.047 17.0341C187.813 16.6161 186.791 16.2876 186.133 15.8368C185.155 15.1709 184.524 14.4991 184.13 13.2063C183.763 12 183.728 10.319 184.336 7.77208C184.394 7.52725 184.673 6.44937 184.709 5.12665C184.75 3.52924 184.388 2.30505 184.262 1.77358C184.153 1.31376 184.673 0.871859 185.079 1.05698C185.916 1.44215 186.768 1.77955 187.787 1.77358C189.22 1.76462 190.433 1.45409 191.793 0.0865887C191.805 0.0746454 191.873 0 191.934 0C191.996 0 192.066 0.0746454 192.075 0.0865887C193.435 1.45409 194.648 1.76462 196.082 1.77358C197.101 1.78253 197.953 1.44514 198.79 1.05698C199.195 0.871859 199.715 1.31376 199.606 1.77358C199.48 2.30505 199.119 3.52924 199.16 5.12665C199.192 6.44937 199.474 7.52725 199.533 7.77208C200.141 10.319 200.106 12 199.738 13.2063H199.733Z" fill="#EF3F43"/>
<path d="M199.251 7.82563C199.196 7.58676 198.893 6.54173 198.864 5.25783C198.817 3.33795 199.195 2.36158 199.322 1.84504C199.404 1.50764 199.122 1.23892 198.814 1.37925C198.006 1.75248 196.913 2.07793 195.932 2.07495C194.549 2.06599 193.324 1.76741 192.017 0.441704C192.008 0.432746 191.979 0.399902 191.932 0.399902C191.885 0.399902 191.858 0.432746 191.847 0.441704C190.539 1.76442 189.315 2.06599 187.931 2.07495C186.95 2.08092 185.855 1.75248 185.05 1.37925C184.741 1.23892 184.459 1.50764 184.542 1.84504C184.668 2.36158 185.044 3.33795 185 5.25783C184.97 6.53874 184.668 7.58676 184.612 7.82563C184.028 10.2889 184.063 11.9192 184.418 13.0866C184.797 14.3377 185.379 14.9886 186.322 15.6335C186.956 16.0665 187.966 16.3531 189.156 16.7532C189.999 17.0369 191.203 17.6639 191.723 18.3238C191.77 18.3805 191.849 18.5268 191.938 18.5268C192.026 18.5268 192.105 18.3805 192.152 18.3238C192.672 17.6669 193.876 17.0399 194.719 16.7532C195.909 16.3501 196.919 16.0665 197.554 15.6335C198.496 14.9886 199.081 14.3377 199.457 13.0866C199.812 11.9192 199.848 10.2889 199.263 7.82563H199.251ZM199.213 12.8508C198.925 13.9257 198.329 14.7259 197.433 15.3409C196.828 15.753 195.759 16.0605 194.625 16.4517C193.491 16.8428 192.534 17.425 192.146 17.8759C192.099 17.9267 191.993 18.0461 191.932 18.1088C191.87 18.0461 191.761 17.9296 191.717 17.8759C191.33 17.428 190.372 16.8428 189.238 16.4517C188.104 16.0635 187.035 15.753 186.43 15.3409C185.534 14.7259 184.938 13.9227 184.65 12.8508C184.354 11.7251 184.348 10.2143 184.906 7.86445C184.959 7.64051 185.261 6.62832 185.291 5.4101C185.335 3.58278 185.029 2.26604 184.827 1.80324C184.762 1.65096 184.879 1.60617 185.032 1.6838C185.576 1.95253 186.891 2.39144 188.116 2.36158C189.517 2.32575 190.73 1.9794 191.938 0.764172C193.145 1.98239 194.358 2.32575 195.759 2.36158C196.981 2.39144 198.297 1.95253 198.843 1.6838C198.996 1.60916 199.113 1.65395 199.049 1.80324C198.846 2.26604 198.541 3.58278 198.585 5.4101C198.614 6.62832 198.916 7.64051 198.969 7.86445C199.527 10.2113 199.522 11.7251 199.225 12.8508H199.213Z" fill="white"/>
<path d="M187.763 6.07905C187.781 5.84616 187.763 5.52369 187.769 5.11165C187.769 4.99819 187.778 4.89966 187.725 4.90264C187.637 4.9116 187.558 5.11464 187.525 5.22511C187.472 5.40127 187.437 5.71479 187.393 5.85213C187.358 5.96261 187.223 6.14474 187.182 6.10294C187.146 6.0701 187.314 5.50578 187.273 5.03103C187.264 4.93549 187.273 4.86681 187.273 4.86681C187.273 4.86681 188.465 4.18007 188.639 4.08154C188.653 4.24875 188.686 4.62496 188.715 4.82203C188.747 5.03103 188.9 5.28184 188.832 5.27288C188.542 5.2281 188.518 4.60705 188.304 4.59212C188.172 4.58316 188.201 4.68169 188.192 4.7862C188.183 4.8907 188.18 5.55355 188.18 5.66403C188.18 5.7745 188.18 6.93598 188.177 7.08527C188.174 7.23457 188.177 7.354 188.357 7.44357C188.098 7.59286 187.766 7.78097 187.528 7.9213C187.616 7.78396 187.754 7.49433 187.757 7.3122C187.757 6.96286 187.746 6.33584 187.766 6.07905" fill="white"/>
<path d="M189.172 5.92118C189.164 5.41956 189.193 4.54173 189.149 4.4641C189.102 4.38945 189.055 4.33272 188.926 4.27301C189.155 4.14163 189.504 3.94158 189.76 3.79528C189.672 3.93262 189.616 4.09684 189.607 4.23419C189.595 4.46709 189.595 4.67908 189.593 4.86718C189.593 5.07321 189.628 5.01349 189.866 4.88809C190.098 4.76567 190.156 4.73282 190.159 4.62832C190.162 4.45514 190.159 4.07594 190.159 4.0013C190.159 3.93262 190.118 3.66987 189.963 3.67584C190.112 3.58926 190.588 3.32053 190.747 3.23096C190.574 3.56238 190.603 3.83708 190.6 4.09983C190.594 4.68206 190.585 5.25236 190.585 5.84952C190.585 5.89431 190.612 6.02568 190.773 6.0645C190.559 6.18692 190.253 6.36308 190.045 6.48251C190.186 6.22872 190.154 5.27326 190.151 5.18965C190.148 5.10605 190.177 5.00155 190.015 5.09709C189.907 5.16278 189.757 5.24937 189.648 5.31207C189.59 5.3479 189.572 5.38672 189.575 5.47032C189.581 5.6644 189.584 6.07047 189.581 6.27948C189.578 6.4855 189.534 6.5691 189.783 6.63479C189.566 6.75721 189.208 6.96323 188.97 7.10058C189.184 6.83782 189.175 6.29142 189.17 5.92715" fill="white"/>
<path d="M192.236 3.85179C191.913 3.88463 191.714 4.09364 191.699 4.16231C191.678 4.26682 191.684 4.77739 191.687 4.93564C191.687 5.07 191.725 5.13569 191.781 5.13569C192.113 5.15361 192.571 4.55047 192.753 4.09066C192.756 4.31758 192.747 4.77441 192.745 4.9446C192.477 5.09688 191.296 5.76868 191.088 5.88812C191.208 5.69703 191.279 5.4074 191.276 5.25811C191.276 5.10882 191.296 4.43402 191.288 4.02198C191.288 3.88463 191.288 3.63084 191.288 3.51738C191.288 3.40392 191.288 3.10832 191.085 3.03965C191.517 2.78884 191.954 2.54102 192.407 2.28125C192.433 2.49026 192.468 2.78585 192.492 2.97993C192.383 2.89334 192.192 2.75898 192.04 2.77391C191.881 2.78884 191.793 2.8605 191.719 3.00382C191.678 3.08145 191.702 3.68757 191.702 3.7861C191.702 3.7861 191.799 3.73236 191.843 3.68458C192.069 3.45169 192.463 3.44273 192.568 3.43079C192.747 3.40989 192.838 3.2815 192.897 3.16207C192.932 3.39197 192.944 3.43676 192.794 3.62785C192.695 3.75326 192.436 3.8279 192.239 3.8488" fill="white"/>
<path d="M185.798 10.1339C185.592 10.2653 185.513 10.6146 185.686 10.7997C185.792 10.9132 186.139 11.2356 186.441 11.5312C186.744 11.8268 186.885 12.1463 186.855 12.6449C186.826 13.1436 186.315 13.5855 185.96 13.5915C185.234 13.6034 185.07 13.1705 185.061 12.9196C185.055 12.6688 185.213 12.3673 185.495 12.3434C185.789 12.3195 185.871 12.5882 185.857 12.6927C185.678 12.6509 185.516 12.7047 185.51 12.8808C185.498 13.1167 185.727 13.1973 185.907 13.1764C186.374 13.1287 186.603 12.5733 186.297 12.1314C186.062 11.791 185.114 11.3282 185.164 10.6026C185.202 10.0652 185.598 9.76065 185.866 9.72183C186.406 9.6442 186.494 9.90098 186.594 9.82335C186.641 9.78752 186.723 9.74273 186.811 9.73975C186.899 9.73676 186.926 9.73975 186.949 9.78155C186.691 10.0742 186.703 10.6116 186.888 10.9729C186.8 11.0893 186.615 10.9221 186.515 10.749C186.415 10.737 186.388 10.7191 186.33 10.6922C186.421 10.534 186.432 10.4175 186.35 10.2623C186.259 10.098 185.974 10.0204 185.798 10.1309" fill="white"/>
<path d="M187.087 12.5377C187.029 12.8303 186.982 12.8781 186.935 12.9647C187.137 12.8423 187.428 12.681 187.648 12.5556C187.604 12.5556 187.487 12.5019 187.463 12.3884C187.434 12.2451 187.525 11.6569 187.578 11.6211C187.631 11.5852 187.995 11.3762 188.039 11.3464C188.083 11.3195 188.121 11.5225 188.156 11.7047C188.195 11.8868 188.174 12.0869 188.015 12.3496C188.233 12.2212 188.668 11.9794 188.779 11.9077C188.591 11.8898 188.541 11.433 188.503 11.2986C188.468 11.1672 188.018 9.43247 188.004 9.28616C187.989 9.13986 187.998 8.98758 188.042 8.89502C187.954 8.94279 187.866 8.99355 187.792 9.14881C187.692 9.36678 187.654 9.6564 187.625 9.80868C187.593 9.96096 187.117 12.3974 187.087 12.5377ZM187.81 10.155C187.81 10.155 188.051 11.0179 188.007 11.0388C187.939 11.0687 187.681 11.218 187.64 11.2389C187.598 11.2598 187.807 10.155 187.807 10.155" fill="white"/>
<path d="M189.396 8.84393C189.399 9.41721 189.379 10.8982 189.381 11.0176C189.384 11.137 189.367 11.2505 189.399 11.2595C189.496 11.2863 189.614 11.1221 189.71 11.0176C189.807 10.9131 189.757 10.295 190.145 10.2055C190.086 10.3786 190.051 10.6235 190.042 10.7041C190.034 10.7847 190.057 11.1729 190.057 11.1729C190.057 11.1729 189.152 11.6924 188.894 11.8417C188.982 11.6327 188.959 11.4028 188.961 11.2117C188.979 10.4593 188.97 9.76953 188.988 8.96934C188.994 8.72748 188.823 8.67673 188.762 8.64388C188.961 8.53042 189.452 8.24677 189.517 8.21094C189.434 8.35127 189.393 8.47966 189.396 8.84095" fill="white"/>
<path d="M189.93 8.41117C189.898 8.27979 189.798 8.17828 189.663 8.13647C189.889 8.00211 190.233 7.81102 190.462 7.67666C190.397 7.80803 190.318 8.15439 190.365 8.32458C190.4 8.45297 190.644 9.57265 190.644 9.57265C190.644 9.57265 190.911 7.9633 190.929 7.84088C190.947 7.72145 190.97 7.62889 190.759 7.50945C190.932 7.40793 191.349 7.17205 191.543 7.05859C191.499 7.15115 191.387 7.35419 191.346 7.5423C191.305 7.7304 190.75 10.5251 190.741 10.5878C190.732 10.6505 190.709 10.9611 190.474 11.0775C190.53 10.8745 190.524 10.8595 190.494 10.7043C190.465 10.549 190.024 8.81127 189.93 8.41416" fill="white"/>
<path d="M191.235 10.1491C191.176 10.4417 191.047 10.5492 191 10.6358C191.203 10.5133 191.655 10.2596 191.872 10.1341C191.828 10.1341 191.646 10.0953 191.623 9.97889C191.593 9.83557 191.684 9.27125 191.737 9.23542C191.79 9.19959 192.122 8.99954 192.166 8.97267C192.21 8.94579 192.248 9.14883 192.284 9.33096C192.319 9.5131 192.301 9.71315 192.143 9.97889C192.36 9.8505 192.795 9.60865 192.906 9.53699C192.718 9.51609 192.668 9.06224 192.63 8.92788C192.595 8.7965 192.198 7.05279 192.184 6.9035C192.169 6.75719 192.169 6.55415 192.184 6.45264C192.096 6.50041 191.999 6.62283 191.963 6.79302C191.911 7.04681 191.846 7.35137 191.817 7.50364C191.784 7.65592 191.261 10.0087 191.235 10.1491ZM191.987 7.95749C191.987 7.95749 192.178 8.64721 192.134 8.66811C192.066 8.69797 191.864 8.82636 191.822 8.84428C191.781 8.86518 191.987 7.95749 191.987 7.95749Z" fill="white"/>
<path d="M193.141 6.975C193.138 6.79287 193.141 6.48533 193.112 6.45547C193.077 6.46443 192.865 6.54505 192.815 6.766C192.759 7.02576 192.8 7.23477 192.545 7.44676C192.598 7.11235 192.577 6.75107 192.545 6.48832C192.739 6.37187 193.82 5.75978 193.99 5.65527C193.969 6.0285 193.975 6.51519 194.008 6.87647C193.949 6.85557 193.793 6.67642 193.781 6.60775C193.77 6.54803 193.773 6.24647 193.608 6.20765C193.532 6.18973 193.535 6.30917 193.535 6.3659C193.535 6.42263 193.523 7.15415 193.526 7.21984C193.529 7.28553 193.514 8.74261 193.514 8.80531C193.514 8.871 193.564 9.03522 193.72 9.08299C193.555 9.17555 193.156 9.39949 192.98 9.49802C193.144 9.24721 193.112 8.95759 193.121 8.77844C193.132 8.52763 193.144 7.56918 193.135 6.97799" fill="white"/>
<path d="M194.683 5.6193C194.674 6.0403 194.663 7.99601 194.663 8.12141C194.663 8.28265 194.763 8.40805 194.868 8.42298C194.68 8.53346 194.284 8.76336 194.078 8.87682C194.163 8.70663 194.263 8.39909 194.263 8.13336C194.257 7.47648 194.295 6.4613 194.284 5.83428C194.284 5.78949 194.216 5.58048 194.128 5.58048C194.319 5.47001 194.613 5.3028 194.801 5.19531C194.745 5.29683 194.692 5.3864 194.689 5.61631" fill="white"/>
<path d="M195.194 7.87391C195.502 8.27102 195.999 7.97841 196.219 7.55144C196.425 7.15731 196.481 6.47058 196.495 5.76891C196.51 5.06724 196.187 4.75373 195.958 4.66714C195.729 4.58055 195.417 4.78956 195.288 4.97468C195.156 5.1598 194.98 5.48526 194.924 5.94507C194.844 6.58404 194.88 7.46784 195.194 7.87391ZM196.043 5.47331C196.037 5.71815 196.075 6.92442 195.87 7.47082C195.717 7.88287 195.435 7.70073 195.379 7.38125C195.306 6.94532 195.353 5.82265 195.488 5.35089C195.626 4.86719 196.052 4.93288 196.043 5.47331Z" fill="white"/>
<path d="M196.701 4.74775C196.695 4.47604 196.61 4.44917 196.428 4.27301C196.484 4.23419 196.874 4.01324 197.001 3.94158C197.094 4.12969 197.391 4.91197 197.529 5.09709C197.614 4.59846 197.647 4.12372 197.661 3.62509C197.664 3.50267 197.488 3.35935 197.397 3.31755C197.447 3.1593 197.899 2.89356 197.987 3.42205C198.029 3.67883 197.726 5.58378 197.902 6.36905C197.955 6.61389 198.037 6.75124 198.117 6.89157C198.073 6.93636 197.952 6.93934 197.814 6.89157C197.676 6.8438 197.585 6.65868 197.541 6.52431C197.379 6.0436 197.174 5.63753 196.989 5.23146C196.971 5.56885 196.974 5.71516 196.968 5.89729C196.956 6.29142 196.965 6.50043 196.98 6.8647C196.986 6.9901 197.147 7.0737 197.244 7.07669C197.068 7.17224 196.73 7.3693 196.542 7.47978C196.633 7.30958 196.68 7.12745 196.692 6.81095C196.71 6.17199 196.716 5.39269 196.707 4.75372" fill="white"/>
<path d="M190.368 14.3588C190.409 14.3379 190.759 14.1319 190.826 14.102C190.87 14.0811 190.591 13.0122 190.591 13.0122C190.591 13.0122 190.327 14.3797 190.368 14.3588ZM190.397 12.6629C190.43 12.4957 190.453 12.2299 190.562 11.9941C190.638 11.8239 190.762 11.7373 190.859 11.6865C190.812 11.788 190.823 11.8567 190.838 12.0179C190.853 12.1792 191.284 14.1259 191.323 14.2693C191.361 14.4126 191.44 14.9351 191.643 14.956C191.519 15.0366 191.214 15.1949 190.979 15.3352C191.05 15.0277 191.011 14.9202 190.973 14.7201C190.932 14.523 190.903 14.3976 190.856 14.4275C190.809 14.4574 190.347 14.7201 190.289 14.7589C190.233 14.7977 190.133 15.3322 190.162 15.4905C190.186 15.6159 190.315 15.6935 190.365 15.6905C190.127 15.8279 189.872 15.9592 189.651 16.0936C189.701 15.998 189.754 15.9353 189.819 15.6159C189.848 15.4636 190.362 12.8301 190.397 12.6629Z" fill="white"/>
<path d="M192.239 12.9289C192.239 13.0035 192.515 12.9886 192.656 12.8423C192.765 12.7258 192.894 12.1526 192.838 11.9585C192.703 11.4927 192.251 11.6271 192.242 11.7346C192.233 11.842 192.233 12.5646 192.242 12.9289M192.756 13.1498C192.732 13.2932 192.847 13.7828 192.988 14.0516C193.173 14.3651 193.408 14.5532 193.819 14.4188C193.708 14.8876 193.194 14.7771 192.979 14.6248C192.489 14.2755 192.28 13.4723 192.26 13.2006C192.233 13.2961 192.227 13.947 192.233 14.3113C192.233 14.3561 192.274 14.4994 192.427 14.5084C192.339 14.5562 191.822 14.8517 191.707 14.9234C191.734 14.8846 191.781 14.7681 191.784 14.5651C191.79 13.9321 191.79 12.7199 191.804 11.9585C191.804 11.86 191.628 11.6987 191.572 11.6748C191.801 11.4957 192.13 11.3613 192.401 11.2777C192.671 11.1941 192.97 11.2927 193.135 11.5405C193.464 12.0361 193.188 12.7229 192.759 13.1439" fill="white"/>
<path d="M195.253 10.4775C195.241 10.8746 195.244 11.854 195.253 12.3944C195.253 12.6243 195.285 12.6542 195.476 12.7706C195.209 12.911 194.895 13.0901 194.616 13.2633C194.73 13.0692 194.798 12.8154 194.798 12.7288C194.789 12.3317 194.809 11.6151 194.777 11.2509C194.648 11.5703 194.407 12.3556 194.407 12.3556C194.407 12.3556 194.078 11.7764 193.893 11.5076C193.861 12.069 193.867 13.12 193.872 13.2484C193.878 13.3768 193.972 13.4544 194.128 13.541C193.911 13.6664 193.558 13.8664 193.358 13.9739C193.394 13.8694 193.535 13.6783 193.535 13.529C193.535 13.2603 193.552 11.3554 193.552 11.1822C193.552 11.006 193.558 10.8358 193.326 10.7283C193.414 10.6806 193.732 10.4895 193.808 10.4507C194.046 10.8627 194.248 11.2479 194.36 11.4121C194.516 10.8926 194.642 10.4805 194.83 9.87141C194.942 9.79676 195.221 9.63553 195.4 9.54297C195.209 9.97591 195.274 9.93411 195.259 10.4805" fill="white"/>
<path d="M195.811 9.60867C195.761 9.51013 195.673 9.42952 195.585 9.42952C195.776 9.32501 196.111 9.13094 196.331 9.00553C196.287 9.05032 196.231 9.28023 196.246 9.3489C196.261 9.41757 196.575 10.2208 196.613 10.2775C196.713 10.1342 196.983 9.56089 197.151 9.10705C197.259 8.80847 197.115 8.36955 196.895 8.37552C196.98 8.14562 197.336 8.18742 197.427 8.32476C197.609 8.59647 197.538 8.97269 197.441 9.23842C197.344 9.50416 196.998 10.2626 196.807 10.6656C196.798 10.6836 196.78 11.5823 196.783 11.6629C196.786 11.7435 196.892 11.8839 196.995 11.9018C196.763 12.0331 196.366 12.2601 196.122 12.3974C196.269 12.1406 196.322 12.0063 196.319 11.6987C196.316 11.4778 196.328 10.8448 196.316 10.8209C196.216 10.6029 195.858 9.71317 195.808 9.61464" fill="white"/>
</g>
<defs>
<clipPath id="clip0_248_5271">
<rect width="200" height="36" fill="white"/>
</clipPath>
</defs>
</svg>
