<svg width="60" height="60" viewBox="0 0 60 60" fill="none" xmlns="http://www.w3.org/2000/svg">
<path d="M54.3023 21.9867L50.9414 10.2187C50.7153 9.43808 50.2428 8.75148 49.5944 8.26147C48.946 7.77146 48.1565 7.50434 47.3438 7.5H12.6562C11.8435 7.50434 11.054 7.77146 10.4056 8.26147C9.75717 8.75148 9.28465 9.43808 9.05859 10.2187L5.69766 21.9867C5.64961 22.1536 5.62515 22.3264 5.625 22.5V26.25C5.625 27.7054 5.96386 29.1409 6.61474 30.4426C7.26563 31.7444 8.21066 32.8767 9.375 33.75V50.625C9.375 51.1223 9.57254 51.5992 9.92418 51.9508C10.2758 52.3025 10.7527 52.5 11.25 52.5H48.75C49.2473 52.5 49.7242 52.3025 50.0758 51.9508C50.4275 51.5992 50.625 51.1223 50.625 50.625V33.75C51.7893 32.8767 52.7344 31.7444 53.3853 30.4426C54.0361 29.1409 54.375 27.7054 54.375 26.25V22.5C54.3748 22.3264 54.3504 22.1536 54.3023 21.9867ZM20.625 26.25C20.6247 27.2173 20.3749 28.1681 19.8998 29.0107C19.4248 29.8533 18.7404 30.5591 17.913 31.06C17.0855 31.5609 16.1428 31.84 15.176 31.8703C14.2092 31.9005 13.2509 31.681 12.3938 31.2328C12.2633 31.1313 12.1199 31.0477 11.9672 30.9844C11.1728 30.4758 10.5191 29.7757 10.0661 28.9484C9.61317 28.1211 9.3755 27.1932 9.375 26.25V24.375H20.625V26.25ZM35.625 26.25C35.625 27.7418 35.0324 29.1726 33.9775 30.2275C32.9226 31.2824 31.4918 31.875 30 31.875C28.5082 31.875 27.0774 31.2824 26.0225 30.2275C24.9676 29.1726 24.375 27.7418 24.375 26.25V24.375H35.625V26.25ZM50.625 26.25C50.6242 27.1934 50.3862 28.1215 49.9328 28.9488C49.4795 29.7761 48.8253 30.4761 48.0305 30.9844C47.8798 31.0479 47.738 31.1306 47.6086 31.2305C46.7515 31.6791 45.7932 31.8991 44.8262 31.8692C43.8593 31.8393 42.9164 31.5606 42.0887 31.0599C41.2609 30.5592 40.5763 29.8535 40.1009 29.0109C39.6256 28.1683 39.3755 27.2174 39.375 26.25V24.375H50.625V26.25Z" fill="#21409C"/>
</svg>
