<svg width="40" height="40" viewBox="0 0 40 40" fill="none" xmlns="http://www.w3.org/2000/svg">
<path d="M38.6858 9.56563L30.5983 5.15625C30.415 5.05486 30.2092 5.00113 29.9998 5H24.9998C24.6683 5 24.3504 5.1317 24.1159 5.36612C23.8815 5.60054 23.7498 5.91848 23.7498 6.25C23.7498 7.24456 23.3547 8.19839 22.6515 8.90165C21.9482 9.60491 20.9944 10 19.9998 10C19.0053 10 18.0514 9.60491 17.3482 8.90165C16.6449 8.19839 16.2498 7.24456 16.2498 6.25C16.2498 5.91848 16.1181 5.60054 15.8837 5.36612C15.6493 5.1317 15.3313 5 14.9998 5H9.99982C9.78987 5.00087 9.58352 5.05461 9.39982 5.15625L1.31388 9.56563C0.737473 9.87024 0.305387 10.391 0.112363 11.0137C-0.0806613 11.6364 -0.018869 12.3103 0.284191 12.8875L3.29513 18.6391C3.51406 19.0526 3.84222 19.3981 4.24389 19.6381C4.64557 19.878 5.10537 20.0032 5.57325 20H8.74982V32.5C8.74982 33.163 9.01321 33.7989 9.48205 34.2678C9.95089 34.7366 10.5868 35 11.2498 35H28.7498C29.4129 35 30.0487 34.7366 30.5176 34.2678C30.9864 33.7989 31.2498 33.163 31.2498 32.5V20H34.4279C34.8958 20.0032 35.3556 19.878 35.7573 19.6381C36.159 19.3981 36.4871 19.0526 36.7061 18.6391L39.717 12.8875C40.0199 12.3101 40.0815 11.6361 39.8882 11.0134C39.6949 10.3906 39.2624 9.86997 38.6858 9.56563ZM5.57325 17.5C5.55016 17.5011 5.52744 17.4939 5.50919 17.4797L2.51388 11.7594L8.74982 8.35625V17.5H5.57325ZM34.4904 17.4781C34.4818 17.4859 34.4717 17.4919 34.4607 17.4956C34.4496 17.4994 34.438 17.5009 34.4264 17.5H31.2498V8.35625L37.4873 11.7594L34.4904 17.4781Z" fill="#FF0000"/>
</svg>
